<?xml version="1.0" encoding="utf-8"?>
<!-- Generator: Adobe Illustrator 23.0.5, SVG Export Plug-In . SVG Version: 6.00 Build 0)  -->
<svg version="1.1" id="Capa_1" xmlns="http://www.w3.org/2000/svg" xmlns:xlink="http://www.w3.org/1999/xlink" x="0px" y="0px"
	 viewBox="0 0 300 300" style="enable-background:new 0 0 300 300;" xml:space="preserve">
<style type="text/css">
	.st0{fill:#EF7F00;}
	.st1{fill:#FFFFFF;}
	.st2{fill-rule:evenodd;clip-rule:evenodd;fill:#FFFFFF;}
</style>
<g>
	<g>
		<g>
			<path class="st0" d="M44.02,278.63c0,2.61-1.13,4.84-3.39,6.69c-2.07,1.68-4.36,2.52-6.88,2.52c-1.29,0-2.75-0.28-4.36-0.82
				c0-0.03-0.04-0.11-0.12-0.24c-0.08-0.13-0.12-0.31-0.12-0.53c0-0.36,0.26-0.69,0.78-1.02c0.42-0.26,0.74-0.39,0.97-0.39
				c0.19,0,0.69,0.09,1.48,0.27c0.79,0.18,1.29,0.26,1.48,0.26c2.07,0,3.83-0.56,5.28-1.69c1.62-1.26,2.43-2.94,2.43-5.04
				c0-1.65-0.87-2.47-2.62-2.47c-1.48,0-2.91,0.66-4.26,1.99c-0.71,0.74-1.63,1.99-2.77,3.73c-0.84,1.33-1.43,1.99-1.79,1.99
				c-1,0-1.5-0.45-1.5-1.35c0-0.23,0.13-0.86,0.39-1.91c0.26-1.05,0.39-1.67,0.39-1.87v-15.65c0.39-0.39,0.79-0.58,1.21-0.58
				c0.97,0,1.46,0.58,1.46,1.74c0,0.45-0.08,1.01-0.24,1.65c-0.06,0.29-0.13,0.6-0.19,0.92v10.13c-0.13,0.13,0,0.19,0.39,0.19
				c3.26-2.13,5.46-3.2,6.59-3.2C42.21,273.92,44.02,275.49,44.02,278.63z"/>
			<path class="st0" d="M65.39,284.49c0,0.38-0.16,0.77-0.49,1.16c-0.38,0.48-0.85,0.79-1.4,0.92c-0.65-0.87-1.38-2.3-2.18-4.26
				c-1.1-2.59-1.69-3.98-1.79-4.17c-1.39,1.78-2.78,3.54-4.17,5.28c-1.39,1.46-2.98,2.18-4.75,2.18c-0.58,0-1.18-0.19-1.79-0.58
				c-0.71-0.45-1.07-0.97-1.07-1.55c0-1.58,2.33-4.84,6.98-9.79c0.48-0.49,1.03-0.81,1.65-0.97c0.84-0.2,1.31-0.32,1.4-0.36
				c0.1-0.05,0.3-0.26,0.61-0.63c0.31-0.37,0.57-0.56,0.8-0.56c0.23,0,0.76,0.27,1.6,0.82c0,0.55,0.06,1.31,0.19,2.28
				c0.39,1.45,1.05,3.44,1.98,5.96c0.2,0.52,0.66,1.34,1.41,2.47C65.05,283.7,65.39,284.29,65.39,284.49z M57.92,275.14
				c0-0.32-0.29-0.49-0.87-0.49c-0.78,0.55-1.92,1.67-3.44,3.35c-1.75,1.97-2.62,3.31-2.62,4.02v0.82h1.31
				c0.97,0,2.19-1.18,3.68-3.54C57.28,277.14,57.92,275.75,57.92,275.14z"/>
			<path class="st0" d="M81.39,279.11c-1.23,0.26-2.96,0.73-5.19,1.41c-0.06,3.33,0.03,5.64,0.29,6.93c0.03,0.1,0.16,0.45,0.39,1.06
				c0.23,0.49,0.34,0.87,0.34,1.17c0,1.1-0.47,1.65-1.41,1.65c-1.19,0-1.79-2.31-1.79-6.93c0-1,0.06-2.1,0.19-3.3
				c-0.3-0.48-0.69-0.73-1.18-0.73c-0.2,0-0.74,0.08-1.63,0.24c-0.89,0.16-1.43,0.24-1.63,0.24c-0.52,0-0.99-0.18-1.4-0.56
				c-0.41-0.37-0.61-0.8-0.61-1.28c0-0.32,0.17-0.68,0.51-1.06c0.34-0.39,0.66-0.58,0.95-0.58c0.22,0,0.67,0.09,1.33,0.26
				c0.66,0.18,1.09,0.27,1.28,0.27c1.13,0,1.81-0.1,2.03-0.29c0.23-0.19,0.34-0.81,0.34-1.84v-7.17c0-1,0.11-2.12,0.34-3.34
				c0.36-2,0.91-3,1.65-3c0.71,0,1.21,0.7,1.5,2.09c0,0.22-0.25,1.35-0.75,3.37c-0.5,2.02-0.75,3.13-0.75,3.32v6.2
				c0.62,0.26,1.46,0.45,2.52,0.58c0.87,0.13,1.76,0.26,2.67,0.39V279.11z"/>
			<path class="st0" d="M98.2,286.67c-0.36,0.78-0.81,1.16-1.36,1.16c-3.39,0-7.08-0.76-11.05-2.28v-2.13
				c1.19-0.68,2.5-1.87,3.93-3.59c1.16-1.52,2.34-3.05,3.54-4.6v-0.63c-0.06,0-0.13-0.03-0.19-0.1c-0.06-0.07-0.21-0.1-0.44-0.1
				c-0.61,0-1.91,0.54-3.9,1.62c-1.99,1.09-2.95,1.63-2.89,1.63l-1.89-0.14l-0.14-1.31c0.58-0.58,1.5-1.31,2.76-2.18
				c0.84-0.39,2.08-0.81,3.73-1.26c1.52-0.39,2.45-0.58,2.81-0.58h2.81c0.36,1.1,0.54,1.89,0.54,2.38c0,1.13-0.94,2.76-2.81,4.9
				c-1.23,1.36-2.44,2.7-3.64,4.02c0.49,0.58,1.6,1.1,3.35,1.55C95.61,285.64,97.23,286.19,98.2,286.67z"/>
			<path class="st0" d="M113.66,286.38c-0.03,1.14-1.04,2.04-3.01,2.71c-1.45,0.49-2.79,0.73-4.02,0.73c-1.1,0-2.18-0.31-3.25-0.92
				c-1.48-0.9-2.34-2.21-2.57-3.92c0.07-0.97,0.02-2.28-0.15-3.93c-0.03-0.19-0.14-0.38-0.33-0.56c-0.2-0.18-0.29-0.38-0.29-0.6
				c0-0.42,0.14-0.78,0.44-1.07c0.48-0.48,0.81-0.85,0.97-1.11c0.42-1,0.84-1.99,1.26-2.96c0.32-0.71,1.08-1.07,2.28-1.07
				c1.36,0,2.71,0.76,4.07,2.28c1.26,1.42,1.89,2.68,1.89,3.78c0,0.42-0.19,0.92-0.56,1.5c-0.37,0.58-0.75,0.87-1.14,0.87
				c-0.1,0-0.5-0.17-1.19-0.51c-0.7-0.34-1.88-0.51-3.56-0.51c-0.84,0-1.32,0.14-1.46,0.44c-0.03,0.03-0.05,0.39-0.05,1.06
				c0,1.14,0.26,2.2,0.78,3.2c0.68,1.36,1.66,2.04,2.96,2.04c1,0,2.95-0.49,5.86-1.46H113.66z M107.75,278.53
				c-0.97-1.42-1.72-2.13-2.23-2.13c-0.32,0-0.7,0.22-1.12,0.65c-0.42,0.44-0.63,0.75-0.63,0.95c0,0.39,0.1,0.6,0.29,0.63
				C105.32,278.88,106.55,278.85,107.75,278.53z"/>
			<path class="st0" d="M130.77,288.75c-0.39,0.39-0.73,0.58-1.02,0.58c-0.61,0-1.52-1.42-2.72-4.26c-1.42-3.36-2.37-5.35-2.86-5.96
				c-1.23,0.81-2.39,2.17-3.49,4.08c-1.46,2.52-2.28,3.91-2.47,4.17c-0.45-0.19-1.05-0.48-1.79-0.87c-0.03-1.06-0.22-2.74-0.56-5.04
				c-0.34-2.3-0.51-3.47-0.51-3.54c0-0.52,0.18-0.91,0.54-1.19c0.36-0.28,0.72-0.54,1.08-0.8c0.89,0.39,1.33,1.16,1.33,2.33
				c0,0.16,0,0.44,0,0.82c0,0.36,0,0.63,0,0.83c0,0.61,0.1,1.12,0.29,1.5c0.13-0.13,1.07-1.25,2.84-3.34
				c1.35-1.55,2.53-2.34,3.56-2.37c0.77,0.74,1.94,2.84,3.51,6.3c1.51,3.23,2.26,5.06,2.26,5.48V288.75z"/>
			<path class="st0" d="M159.08,276.54c-0.55,0.58-1,0.87-1.36,0.87c-0.19,0-0.48-0.08-0.87-0.24c-0.39-0.16-0.68-0.24-0.87-0.24
				c-1.32,0-2.81,0.53-4.46,1.6c-1.9,1.23-2.86,2.6-2.86,4.12c0,1.13,0.54,1.69,1.6,1.69c1.32,0,2.32-0.57,3-1.69
				c0.19-0.32,0.6-1.41,1.21-3.25c0.42-1.16,0.92-1.74,1.5-1.74c0.78,0,1.39,1.31,1.84,3.92c0.36,1.97,0.54,3.73,0.54,5.28
				c0,2.42-0.71,5.06-2.13,7.9c-1.78,3.49-4.01,5.23-6.69,5.23c-0.52,0-1.1-0.21-1.74-0.63c-0.74-0.52-1.11-1.05-1.11-1.6
				c0-0.39,0.35-1.13,1.06-2.23c0.26,0.1,0.61,0.45,1.07,1.07c0.45,0.61,0.78,0.92,0.97,0.92c1.97,0,3.6-1.58,4.9-4.75
				c0.97-2.36,1.46-4.33,1.46-5.91c0-0.19-0.04-0.61-0.12-1.23c-0.08-0.63-0.12-1.07-0.12-1.33c0.13-0.13,0-0.19-0.39-0.19
				c0.03,0-0.55,0.45-1.74,1.36c-1.2,0.91-2.39,1.36-3.59,1.36c-1.16,0-2.11-0.42-2.85-1.26c-0.75-0.84-1.12-1.74-1.12-2.7
				c0-1.87,1.02-3.72,3.05-5.56c1.94-1.77,3.78-2.65,5.52-2.65c0.42,0,1.2,0.25,2.33,0.75C158.22,275.9,158.89,276.28,159.08,276.54
				z"/>
			<path class="st0" d="M180.26,284.49c0,0.38-0.16,0.77-0.49,1.16c-0.39,0.48-0.85,0.79-1.41,0.92c-0.65-0.87-1.37-2.3-2.18-4.26
				c-1.1-2.59-1.7-3.98-1.79-4.17c-1.39,1.78-2.78,3.54-4.17,5.28c-1.39,1.46-2.97,2.18-4.75,2.18c-0.58,0-1.18-0.19-1.79-0.58
				c-0.71-0.45-1.06-0.97-1.06-1.55c0-1.58,2.33-4.84,6.98-9.79c0.48-0.49,1.04-0.81,1.65-0.97c0.84-0.2,1.31-0.32,1.41-0.36
				c0.09-0.05,0.29-0.26,0.6-0.63c0.31-0.37,0.57-0.56,0.8-0.56c0.22,0,0.76,0.27,1.6,0.82c0,0.55,0.06,1.31,0.19,2.28
				c0.38,1.45,1.05,3.44,1.99,5.96c0.19,0.52,0.66,1.34,1.41,2.47C179.92,283.7,180.26,284.29,180.26,284.49z M172.8,275.14
				c0-0.32-0.29-0.49-0.87-0.49c-0.78,0.55-1.93,1.67-3.44,3.35c-1.74,1.97-2.62,3.31-2.62,4.02v0.82h1.31
				c0.97,0,2.2-1.18,3.68-3.54C172.15,277.14,172.8,275.75,172.8,275.14z"/>
			<path class="st0" d="M187.33,267.52c-0.19,0.29-0.71,0.68-1.57,1.16c-0.86,0.48-1.37,0.73-1.53,0.73c-0.29,0-0.67-0.2-1.14-0.61
				c-0.47-0.4-0.7-0.74-0.7-1c0-0.48,0.34-0.89,1.02-1.21c0.58-0.26,1.18-0.39,1.79-0.39c0.26,0,0.59,0.15,1,0.46
				C186.6,266.98,186.98,267.27,187.33,267.52z M188.59,279.5c0,0.19-0.07,0.51-0.21,0.97c-0.15,0.45-0.22,0.79-0.22,1.02
				c-0.06,1.65-0.06,3.17,0,4.56c0.13,1.61,0.19,2.37,0.19,2.27c0,0.61-0.28,1.2-0.82,1.75c-0.23,0-0.5-0.16-0.82-0.49
				c-0.32-0.32-0.5-0.61-0.53-0.87c-0.55-3.65-0.83-6.38-0.83-8.19c0-2.1,0.53-3.15,1.6-3.15
				C188.04,277.37,188.59,278.08,188.59,279.5z"/>
			<path class="st0" d="M205.41,279.11c-1.23,0.26-2.96,0.73-5.18,1.41c-0.06,3.33,0.03,5.64,0.29,6.93
				c0.03,0.1,0.16,0.45,0.39,1.06c0.23,0.49,0.34,0.87,0.34,1.17c0,1.1-0.47,1.65-1.41,1.65c-1.2,0-1.79-2.31-1.79-6.93
				c0-1,0.06-2.1,0.19-3.3c-0.29-0.48-0.69-0.73-1.18-0.73c-0.2,0-0.74,0.08-1.63,0.24c-0.89,0.16-1.43,0.24-1.63,0.24
				c-0.52,0-0.99-0.18-1.4-0.56c-0.41-0.37-0.61-0.8-0.61-1.28c0-0.32,0.17-0.68,0.5-1.06c0.34-0.39,0.66-0.58,0.95-0.58
				c0.23,0,0.67,0.09,1.33,0.26c0.66,0.18,1.09,0.27,1.28,0.27c1.13,0,1.81-0.1,2.04-0.29c0.23-0.19,0.34-0.81,0.34-1.84v-7.17
				c0-1,0.11-2.12,0.34-3.34c0.35-2,0.9-3,1.65-3c0.71,0,1.21,0.7,1.5,2.09c0,0.22-0.25,1.35-0.75,3.37
				c-0.5,2.02-0.75,3.13-0.75,3.32v6.2c0.61,0.26,1.45,0.45,2.52,0.58c0.87,0.13,1.76,0.26,2.66,0.39V279.11z"/>
			<path class="st0" d="M224.94,289.29c-0.06,0-0.2,0.05-0.41,0.14c-0.22,0.1-0.45,0.15-0.71,0.15c-1.03,0-2.02-1.4-2.96-4.22
				c-0.49-1.52-0.84-3.02-1.07-4.51c-0.1,0-0.24-0.04-0.44-0.12c-0.19-0.08-0.34-0.12-0.43-0.12c-2.2,4.13-3.91,6.2-5.14,6.2
				c-1.74,0-3.12-1.16-4.12-3.49c-0.74-1.71-1.11-3.31-1.11-4.8c0-1.13,0.02-1.83,0.05-2.09c0.19-1.2,0.71-1.79,1.55-1.79
				c0.29,0,0.64,0.26,1.05,0.78c0.4,0.52,0.61,0.84,0.61,0.97c0,0.19-0.17,0.67-0.51,1.43c-0.34,0.76-0.51,1.23-0.51,1.43
				c0,0.74,0.24,1.62,0.73,2.61c0.58,1.17,1.21,1.74,1.89,1.74c1.03,0,2.16-1.32,3.39-3.97c0.58-1.55,1.18-3.09,1.8-4.61
				c0.52-0.26,0.94-0.39,1.26-0.39c0.74,0,1.26,0.45,1.55,1.36c0.1,0.39,0.23,1.34,0.39,2.86c0.13,1.65,0.28,2.81,0.46,3.51
				c0.18,0.7,0.68,1.78,1.52,3.27c0.78,1.33,1.16,2.08,1.16,2.28V289.29z"/>
			<path class="st0" d="M240.41,286.38c-0.03,1.14-1.03,2.04-3,2.71c-1.45,0.49-2.8,0.73-4.02,0.73c-1.1,0-2.18-0.31-3.24-0.92
				c-1.49-0.9-2.35-2.21-2.57-3.92c0.07-0.97,0.02-2.28-0.14-3.93c-0.03-0.19-0.15-0.38-0.34-0.56c-0.2-0.18-0.29-0.38-0.29-0.6
				c0-0.42,0.14-0.78,0.44-1.07c0.49-0.48,0.8-0.85,0.96-1.11c0.43-1,0.84-1.99,1.26-2.96c0.32-0.71,1.08-1.07,2.28-1.07
				c1.36,0,2.72,0.76,4.07,2.28c1.26,1.42,1.89,2.68,1.89,3.78c0,0.42-0.19,0.92-0.56,1.5c-0.37,0.58-0.75,0.87-1.14,0.87
				c-0.1,0-0.49-0.17-1.19-0.51c-0.7-0.34-1.88-0.51-3.56-0.51c-0.84,0-1.33,0.14-1.46,0.44c-0.03,0.03-0.05,0.39-0.05,1.06
				c0,1.14,0.26,2.2,0.78,3.2c0.68,1.36,1.67,2.04,2.96,2.04c1,0,2.96-0.49,5.87-1.46H240.41z M234.49,278.53
				c-0.97-1.42-1.72-2.13-2.23-2.13c-0.32,0-0.69,0.22-1.11,0.65c-0.42,0.44-0.63,0.75-0.63,0.95c0,0.39,0.1,0.6,0.29,0.63
				C232.07,278.88,233.3,278.85,234.49,278.53z"/>
			<path class="st0" d="M257.51,288.75c-0.39,0.39-0.73,0.58-1.01,0.58c-0.62,0-1.52-1.42-2.72-4.26c-1.42-3.36-2.37-5.35-2.86-5.96
				c-1.23,0.81-2.39,2.17-3.49,4.08c-1.46,2.52-2.28,3.91-2.47,4.17c-0.45-0.19-1.05-0.48-1.79-0.87c-0.03-1.06-0.22-2.74-0.56-5.04
				c-0.34-2.3-0.51-3.47-0.51-3.54c0-0.52,0.18-0.91,0.54-1.19c0.36-0.28,0.72-0.54,1.08-0.8c0.89,0.39,1.33,1.16,1.33,2.33
				c0,0.16,0,0.44,0,0.82c0,0.36,0,0.63,0,0.83c0,0.61,0.1,1.12,0.29,1.5c0.13-0.13,1.07-1.25,2.83-3.34
				c1.35-1.55,2.54-2.34,3.56-2.37c0.77,0.74,1.94,2.84,3.51,6.3c1.51,3.23,2.26,5.06,2.26,5.48V288.75z"/>
			<path class="st0" d="M277.53,284.49c0,0.38-0.16,0.77-0.48,1.16c-0.39,0.48-0.86,0.79-1.41,0.92c-0.65-0.87-1.38-2.3-2.18-4.26
				c-1.1-2.59-1.69-3.98-1.79-4.17c-1.39,1.78-2.78,3.54-4.17,5.28c-1.39,1.46-2.97,2.18-4.75,2.18c-0.58,0-1.18-0.19-1.79-0.58
				c-0.71-0.45-1.07-0.97-1.07-1.55c0-1.58,2.32-4.84,6.98-9.79c0.49-0.49,1.04-0.81,1.65-0.97c0.84-0.2,1.31-0.32,1.41-0.36
				c0.1-0.05,0.3-0.26,0.6-0.63c0.31-0.37,0.57-0.56,0.8-0.56c0.23,0,0.76,0.27,1.6,0.82c0,0.55,0.07,1.31,0.2,2.28
				c0.39,1.45,1.05,3.44,1.98,5.96c0.19,0.52,0.66,1.34,1.41,2.47C277.19,283.7,277.53,284.29,277.53,284.49z M270.07,275.14
				c0-0.32-0.29-0.49-0.87-0.49c-0.78,0.55-1.92,1.67-3.44,3.35c-1.74,1.97-2.62,3.31-2.62,4.02v0.82h1.31
				c0.97,0,2.2-1.18,3.68-3.54C269.42,277.14,270.07,275.75,270.07,275.14z"/>
		</g>
		<g>
			<path class="st1" d="M51.68,246.07c-2.47,1.19-5.68,1.78-9.64,1.78c-5.77,0-10.47-2.05-14.13-6.1
				c-3.63-4.04-5.44-9.31-5.44-15.77v-0.71c0-6.52,1.78-11.75,5.39-15.8c3.63-4.04,8.42-6.04,14.4-6.04c3.21,0,6.04,0.48,8.45,1.49
				c1.51,0.62,2.88,1.37,4.11,2.26c1.31,0.92,2.02,2.47,2.02,4.07v5.45H56.8c-2.38,0-4.46-1.64-5.03-3.96
				c-0.32-1.46-1.31-2.74-2.65-3.39c-0.42-0.21-0.86-0.39-1.34-0.57c-1.37-0.51-3.01-0.77-4.94-0.77c-4.67,0-8.24,1.61-10.77,4.79
				c-2.53,3.18-3.78,7.32-3.78,12.41v0.77c0,5.15,1.22,9.34,3.66,12.52c2.44,3.15,5.8,4.76,10.08,4.76c2.35,0,4.29-0.24,5.8-0.74
				c1.49-0.48,2.71-1.04,3.6-1.64v-9.46l-2.79-0.09c-2.38-0.12-4.29-2.08-4.29-4.49H57.3v15.47
				C56.02,243.66,54.15,244.91,51.68,246.07z"/>
			<path class="st1" d="M83.8,246.49c-1.61,0.95-3.45,1.42-5.59,1.42c-3.54,0-6.28-1.13-8.27-3.39c-1.96-2.26-2.97-5.8-2.97-10.59
				v-14.54c-2.17-0.48-3.72-2.44-3.72-4.64h3.72h5.92V234c0,3.45,0.53,5.86,1.55,7.14c1.01,1.34,2.62,1.99,4.79,1.99
				c2.08,0,3.86-0.44,5.21-1.3c1.4-0.86,2.41-2.05,3.12-3.63v-18.79l-0.63-0.12c-2.17-0.39-3.72-2.32-3.72-4.52h4.35h5.92v27.9
				l0.03,0.03c2.2,0.48,3.72,2.38,3.72,4.61h-4.25c-2.71,0-5-2.08-5.21-4.82C86.72,244.23,85.44,245.57,83.8,246.49z"/>
			<path class="st1" d="M130.3,243.37c0,2.05-1.64,3.72-3.75,3.72h-1.64c-1.34,0-2.5-0.98-2.71-2.32v-0.03
				c-0.09-0.72-0.15-1.37-0.18-2.08l-0.06-4.61v-5.29h-6.25c-2.44,0-4.31,0.53-5.74,1.66c-1.37,1.1-2.08,2.44-2.08,4.02
				c0,1.43,0.45,2.5,1.31,3.24c0.89,0.74,2.2,1.16,3.99,1.16c1.9,0,3.69-0.47,5.32-1.42c0.89-0.54,1.67-1.13,2.32-1.81v1.46
				c0,2.14-1.19,4.13-3.03,5.2l-0.03,0.03c-1.73,0.95-3.54,1.46-5.47,1.46c-3.36,0-5.92-0.83-7.67-2.47
				c-1.73-1.64-2.59-3.96-2.59-6.93c0-3.06,1.22-5.41,3.72-7.08c2.44-1.66,5.86-2.5,10.17-2.5h6.04v-3.75c0-1.9-0.59-3.39-1.79-4.49
				c-1.19-1.1-2.86-1.67-4.97-1.67c-1.49,0-2.77,0.18-3.93,0.59c-0.59,0.21-1.16,0.48-1.67,0.75c-0.68,0.38-1.13,1.1-1.25,1.9
				c-0.24,1.34-1.55,2.29-2.97,2.29h-1.99v-1.49c0-3.36,2.11-6.49,5.3-7.56c0,0,0.03-0.06,0.06-0.06c2.11-0.68,4.37-1.04,6.78-1.04
				c3.69,0,6.64,0.92,8.89,2.79c2.26,1.87,3.39,4.55,3.39,8.03v15.53c0,0.27,0,0.53,0,0.8c0.06,0.95,0.71,1.7,1.64,1.82
				L130.3,243.37z"/>
			<path class="st1" d="M140.02,242.56v-23l-1.13-0.17c-2.14-0.39-3.72-2.24-3.72-4.43h10.71v27.6l1.16,0.21
				c2.11,0.35,3.69,2.2,3.69,4.37h-15.56c0-2.17,1.55-4.02,3.69-4.37L140.02,242.56z M140.02,203.65c0-1.61,1.31-2.94,2.92-2.94
				h0.59c1.28,0,2.35,1.07,2.35,2.38c0,3.24-2.62,5.86-5.86,5.86V203.65z"/>
			<path class="st1" d="M170.59,234.98l-6.31,8.09c1.64,0.18,2.86,1.57,2.86,3.24v0.83H154.5v-1.07c0-1.55,1.1-2.89,2.62-3.18
				l0.83-0.18l9.46-11.84l-9.16-11.45l-0.77-0.15c-1.57-0.33-2.68-1.67-2.68-3.24v-1.07h12.58v0.83c0,1.7-1.22,3.09-2.89,3.3
				l6.01,7.74l6.04-7.76c-1.64-0.18-2.89-1.58-2.89-3.24v-0.86h12.67v1.13c0,1.55-1.07,2.85-2.62,3.15l-0.83,0.18l-9.16,11.45
				L170.59,234.98z M186.63,246.04v1.1h-12.58v-0.86c0-1.64,1.22-3.04,2.83-3.21l-2.68-3.42c-1.84-2.41-1.87-5.71-0.03-8.12
				l0.03-0.03l8.96,11.22l0.89,0.18C185.53,243.19,186.63,244.5,186.63,246.04z"/>
			<path class="st1" d="M217.35,231.92h-16.04c-2.35-0.03-4.22-1.97-4.16-4.32l0.03-0.35l14.22,0.03v-0.81
				c0-2.32-0.62-4.31-1.87-5.83c-1.25-1.58-3.13-2.38-5.57-2.38c-1.99,0-3.72,0.83-5.12,2.53c-1.39,1.67-2.26,3.81-2.59,6.34
				l-0.24,4.94c0.09,3.13,0.89,5.71,2.44,7.77c1.48,2.02,3.66,3.03,6.42,3.03c2,0,3.78-0.3,5.3-0.86c0.24-0.09,0.48-0.21,0.71-0.3
				c2.02-0.89,4.41-0.09,5.57,1.79c-1.16,1.13-2.71,2.08-4.67,2.85c-1.9,0.78-4.19,1.16-6.9,1.16c-4.58,0-8.18-1.52-10.88-4.56
				c-2.68-3-4.02-6.96-4.02-11.78v-1.34c0-4.67,1.37-8.54,4.17-11.63c2.76-3.06,6.01-4.64,9.81-4.64c4.41,0,7.71,1.34,10,4.02
				c2.26,2.65,3.39,6.19,3.39,10.62V231.92z"/>
		</g>
		<g>
			<path class="st0" d="M228.08,244.41l11.21-12.45c2-2.23,3.36-4,4.07-5.32c0.71-1.32,1.06-2.66,1.06-4.05
				c0-1.7-0.49-3.13-1.51-4.31c-0.99-1.15-2.31-1.74-3.95-1.74c-2.38,0-4.12,0.59-5.23,1.81c-0.47,0.52-0.85,1.1-1.13,1.81
				c-0.73,1.93-2.44,3.29-4.52,3.29h-0.45l-0.05-0.14c-0.1-2.94,0.9-5.41,2.92-7.41c2.02-2,4.85-3.01,8.45-3.01
				c3.08,0,5.53,0.89,7.36,2.68c1.81,1.81,2.73,4.1,2.73,6.85c0,1.86-0.56,3.74-1.65,5.6c-1.1,1.86-2.68,3.86-4.68,6.02l-8.99,9.79
				l0.05,0.12h12.15c0.21-2.21,2.07-3.9,4.31-3.9v7.53h-22.15V244.41z"/>
			<path class="st0" d="M261,217.34l-1.13,9.65c0.73-0.52,1.51-0.99,2.4-1.34c0.89-0.33,1.9-0.52,3.08-0.59
				c3.18-0.02,5.67,1.01,7.46,3.11c1.81,2.07,2.73,4.92,2.73,8.45c0,3.44-0.94,6.21-2.78,8.31c-1.86,2.07-4.54,3.13-8.07,3.13
				c-2.89,0-5.32-0.8-7.27-2.38c-1.91-1.6-2.85-3.93-2.75-7.01l0.05-0.14c2.02,0,3.91,1.11,4.8,2.92c0.24,0.52,0.57,1.01,1.01,1.44
				c1.06,1.04,2.45,1.53,4.16,1.53c1.95,0,3.48-0.66,4.57-2.05c1.09-1.39,1.63-3.29,1.63-5.72c0-2.19-0.54-4.02-1.63-5.41
				c-1.1-1.41-2.61-2.12-4.54-2.12c-1.84,0-3.15,0.28-3.98,0.82c-0.83,0.56-1.42,1.39-1.81,2.52l-3.86-0.38l1.98-18.87h18.14v6.82
				h-0.8c-1.55,0-2.88-1.15-3.13-2.68H261z"/>
		</g>
	</g>
	<g>
		<path class="st1" d="M221.55,119.64c-0.61-21.51-12.98-38.81-32.03-49.23c-5.55-3.04-24.08-11.51-34.68-8.36
			c-3.14,0.93-13.4,6.59-12.1,8.87c0.02,0.03,0.02,0.04,0.02,0.04c-11.99,2.59-29.69,27.25-29.77,38.24
			c-0.07,10.06,3.58,19.62,5.18,29.45c1.94,11.9,12.72,17.82,21.6,24.99c16.29,6.69,32.76,3.05,33.03,3.06
			c0.33,0.01,7.75-1.96,7.89-1.94c4.2-2.32,14.45-8.13,14.43-8.25c1.69-1.18,3.05-2.38,3.97-3.44c0.3-0.35,4.97-5.81,5.89-10.01
			c0.15-0.66,1.54-11.26,1.81-11.28c-0.69-28.4-19.5-53.67-51.23-49.54c-16.54,2.15-25.05,25.26-23.35,39.46
			c4.38,36.25,28.16,33.32,40.77,33.86c4.98,0.22,9.05-2.79,11.33-4.14c9.43-5.6-1.57-36.82,4.76-38.24
			c0.17-0.04-0.59-5.05-6.16-9.61c-4-3.28-9.87-4.31-15.57-4.2c-11.17,0.24-12.99,5.85-15.11,12.46
			c-1.5,4.65-5.09,34.06,15.86,28.19c10.29-2.87,10.52-10.26,9.44-15.86c0.07,1.01-18.78,3.55-20.63-2.45
			c1.31-0.27,20.58-0.89,20.63-0.6c4.2-0.16,7.5,25.94-18.11,21.83c-11.58-1.86-15.86-18.25-13.72-28.88
			c1.87-9.21,9.29-19.95,28.71-17.55c4.97,0.61,16.11,5.96,16.07,17.59c0,0,0.06-0.05-0.29,0c-4.91,0.78,9.94,30.21-6.31,40.53
			c-6.19,3.93-13.86,4.67-22.09,3.96c-9.97-0.85-30.01-9.13-32.66-35.5c-1.8-17.84,4.18-42.52,32.13-46.05
			c0.17-0.03,0.17,0.07,0.11,0.08c7.97,5.5,22.34-1.67,28.99,9.16c0.46,0.06,21.28,19.07,18.77,48.52
			c-0.64,7.57-5.86,19.94-11.1,22.58c-0.78,0.39-11.89,9.46-20.09,10.83c-14.82,3.71-25.06,1.32-28.01,1.25
			c-4.59-0.11-8.37-1.89-12.25-3.65c-0.06-0.03-0.09-0.07-0.15-0.11c-12.09-5.54-23.57-19.98-24.25-27.19
			c-5.95,24.06,22.34,33.9,39.98,38.61c12.47,3.32,42.67,3.86,47.95-13.06c0.02,0.45,0-0.7,1.03-0.61
			c13.17,1.27,18.01-35.31,15.52-41.72c0.99,2.55,2.97,3.91,2.97,3.91C221.57,123.13,221.5,121.17,221.55,119.64z"/>
		<g>
			<path class="st1" d="M156.39,61.87c-8.34,0.01-26.91,17.43-33.07,11.41c-0.57-0.56-1.33,0.46-1.67,0.57
				c1.65,12.3-15.18,18.2-16.57,31.48c-0.33,3.17-1.57,21.64,0.4,33.29c0.95,5.65,4.48,10.18,7.18,13.8
				c7.76,10.4,6.93,4.67,6.62,3.78c-2.64-7.56-7.91-33.9-8.54-37.58c-1.4-8.19-2.04-18.04,4.24-24.54
				c4.79-4.95,11.03-9.36,9.02-17.95c2.96,5.27,7.78,1.06,15.55,0.08C141.62,75.96,167.08,61.86,156.39,61.87z"/>
			<path class="st1" d="M157.11,63.38c0.13,0,0.67,0,1.89,0c0.64,0,0.94,0,1.01,0C159.84,63.38,157.46,63.38,157.11,63.38z"/>
		</g>
		<g id="q0pTan_1_">
			<g>
				<path class="st2" d="M147.76,0c2.55,0,2.13,3.64,2,5.21c6.21,0.97-1.14,4.67-0.4,8.42c0.7-1.4,1.77-1.8,3.21-1.2
					c-0.58,6.83-10.28,13.52-15.63,16.84c2.29-3.08,6.08-6.29,6.41-10.42c-1.48,5.55-7.76,8.4-8.82,14.03
					c6.72-6.46,16.47-8.63,24.92-11.84c5.25-2,3.88-4.41,7.97-6.73c2.14,1.28,3.42,0.61,3.85-2c0.71-2.17,2.23-3.33,4.54-3.47
					c-0.04,0.69-0.17,1.36-0.4,2c2.58-2.37,3.77-6.01,7.62-6.81c0,1.91-1.86,7.28-3.6,8.42c0.74-0.51,1.27-0.38,1.6,0.4
					c-2.71,5.17-7.22,7.61-13.23,7.21c2.89-1.14,8.17-3.13,8.82-6.82c-4.48,7.37-15,8.22-22.44,10.42
					c-8.49,2.51-17.14,6.63-22.85,13.63c4.78-5.05,22.09-6.12,25.15-3.47c-2.86-2.86-14.92-2.53-17.93-0.94
					c3.78-3.59,20.69-9.53,20.84-6.81c0.07,1.35-1.46,2.25-2.41,3.21c6.3-0.3,8.18-2.96,14.43,0c0.62,3.75-1.48,5.84-5.61,6.81
					c0.48,0.62,0.88,1.29,1.21,2c-2.41,2.67-7.99,2.55-10.42,0c-1.06,1.47,2.54,2.75,0.8,4.81c-2.75-1.87-3.7-2.36-6.28-1.01
					c-2.98,1.55-4.41-3.01-6.15-4.2c-0.17,3.42-5.92-1.14-8.73,0.6c-1.59-2.04-3.81-1.12-6.45,1.47
					c-6.14,6.02-7.73,15.34-7.26,23.59c0.08-4.29,4.61-12.27,10.02-8.82c-11.46-0.76-11.36,13.84-8.37,20.96
					c-2.94,0-4.95-5.67-9.26-6.13c2.4-2.04,5.62,1.63,6.82,3.21c-0.54-2.25-5.18-13.6-5.21-13.63c-2.8-2.86-9.58-2.68-10.42-4.81
					c0.63-0.44,1.16-0.98,1.6-1.6c-6.84,0.29-13.51,3.16-20.05-0.4c-0.28-3.61,3.47-2.94,5.21-4.81c-2.89-0.32-8.65,1.89-10.82-1.2
					c0.12-0.75,0.52-1.29,1.2-1.6c-8.27,0.17-4.71-11.55,2.41-7.21c-0.41-0.75-0.67-1.56-0.8-2.41c4.29-1.55,7.09,1.08,10.82,2.41
					c-1.05-1.76-1.32-3.63-0.8-5.61c10.04,0.74,11.23,8.95,16.83,15.23c0.31-6.63,8.93,9.68,6.82,10.82
					c-4.8-8.18-12.83-13.72-22.05-14.83c11.73,2.94,20.82,10.58,24.05,22.45c-1.23-22.08,12.64-30.26,16.44-41.29
					c1.17-3.4-0.48-14.35,4.41-15.63c-0.04,0.93,0.22,1.74,0.8,2.4c-0.19-1.49,0.35-8.49,4.01-5.61
					C145.93,3.22,146.47,1.48,147.76,0C148.03,0,146.65,1.15,147.76,0z"/>
			</g>
		</g>
		<path class="st2" d="M124.08,76.29c0,0,1.39,4.65,14.16-2.45c6.67-3.71,18.85-7.11,21.7-6.76c2.84,0.36,16.3,4.32,2.07,2.9
			c-13.74-1.38-31.55,9.32-33.69,11.1C126.19,82.86,124.08,76.29,124.08,76.29z"/>
	</g>
</g>
</svg>
