<?xml version="1.0" encoding="UTF-8" standalone="no"?>
<svg
   xmlns:dc="http://purl.org/dc/elements/1.1/"
   xmlns:cc="http://creativecommons.org/ns#"
   xmlns:rdf="http://www.w3.org/1999/02/22-rdf-syntax-ns#"
   xmlns:svg="http://www.w3.org/2000/svg"
   xmlns="http://www.w3.org/2000/svg"
   xmlns:sodipodi="http://sodipodi.sourceforge.net/DTD/sodipodi-0.dtd"
   xmlns:inkscape="http://www.inkscape.org/namespaces/inkscape"
   aria-hidden="true"
   focusable="false"
   data-prefix="fas"
   data-icon="video"
   class="svg-inline--fa fa-video fa-w-18"
   role="img"
   viewBox="0 0 576 512"
   version="1.1"
   id="svg4"
   sodipodi:docname="video.svg"
   inkscape:version="0.92.1 r15371">
  <metadata
     id="metadata10">
    <rdf:RDF>
      <cc:Work
         rdf:about="">
        <dc:format>image/svg+xml</dc:format>
        <dc:type
           rdf:resource="http://purl.org/dc/dcmitype/StillImage" />
        <dc:title></dc:title>
      </cc:Work>
    </rdf:RDF>
  </metadata>
  <defs
     id="defs8" />
  <sodipodi:namedview
     pagecolor="#ffffff"
     bordercolor="#666666"
     borderopacity="1"
     objecttolerance="10"
     gridtolerance="10"
     guidetolerance="10"
     inkscape:pageopacity="0"
     inkscape:pageshadow="2"
     inkscape:window-width="1600"
     inkscape:window-height="827"
     id="namedview6"
     showgrid="false"
     inkscape:zoom="0.65186406"
     inkscape:cx="340.33634"
     inkscape:cy="209.26335"
     inkscape:window-x="0"
     inkscape:window-y="73"
     inkscape:window-maximized="0"
     inkscape:current-layer="svg4" />
  <path
     style="color:#000000;font-style:normal;font-variant:normal;font-weight:normal;font-stretch:normal;font-size:medium;line-height:normal;font-family:sans-serif;font-variant-ligatures:normal;font-variant-position:normal;font-variant-caps:normal;font-variant-numeric:normal;font-variant-alternates:normal;font-feature-settings:normal;text-indent:0;text-align:start;text-decoration:none;text-decoration-line:none;text-decoration-style:solid;text-decoration-color:#000000;letter-spacing:normal;word-spacing:normal;text-transform:none;writing-mode:lr-tb;direction:ltr;text-orientation:mixed;dominant-baseline:auto;baseline-shift:baseline;text-anchor:start;white-space:normal;shape-padding:0;clip-rule:nonzero;display:inline;overflow:visible;visibility:visible;opacity:1;isolation:auto;mix-blend-mode:normal;color-interpolation:sRGB;color-interpolation-filters:linearRGB;solid-color:#000000;solid-opacity:1;vector-effect:none;fill:#ffffff;fill-opacity:1;fill-rule:nonzero;stroke:none;stroke-width:23.70116615;stroke-linecap:butt;stroke-linejoin:miter;stroke-miterlimit:4;stroke-dasharray:none;stroke-dashoffset:0;stroke-opacity:1;color-rendering:auto;image-rendering:auto;shape-rendering:auto;text-rendering:auto;enable-background:accumulate"
     d="m 64.410156,65.425781 c -30.978607,0 -56.3457029,25.367103 -56.3457029,56.345699 v 268.45704 c 0,30.97859 25.3670969,56.3457 56.3457029,56.3457 H 332.86719 c 30.97861,0 56.3457,-25.36711 56.3457,-56.3457 V 121.77148 c 0,-30.978599 -25.36709,-56.345699 -56.3457,-56.345699 z m 0,23.701172 H 332.86719 c 18.17041,0 32.64453,14.474147 32.64453,32.644527 v 268.45704 c 0,18.17038 -14.47412,32.64453 -32.64453,32.64453 H 64.410156 c -18.170401,0 -32.644531,-14.47415 -32.644531,-32.64453 V 121.77148 c 0,-18.17039 14.47413,-32.644527 32.644531,-32.644527 z m 459.722654,6.3125 c -7.40776,0.257173 -14.88684,2.512167 -21.66211,7.156247 l -0.0137,0.01 -0.0156,0.01 -107.14258,73.9043 v 158.96485 l 107.15039,73.8125 c 27.0224,18.60977 65.48633,-0.99193 65.48633,-33.7754 V 136.38477 c 0,-24.52117 -21.57944,-41.716836 -43.80274,-40.945317 z m 1.46485,23.248047 c 9.74276,-0.62476 18.63672,6.75296 18.63672,17.69727 v 239.13671 c 0,14.69002 -15.89606,22.82699 -28.3418,14.25586 L 419,323.03125 V 188.96484 l 96.87109,-66.82031 c 3.13831,-2.15114 6.47898,-3.24878 9.72657,-3.45703 z"
     id="path2"
     inkscape:connector-curvature="0" />
</svg>
